<mxfile host="app.diagrams.net" agent="Mozilla/5.0 (Windows NT 10.0; Win64; x64) AppleWebKit/537.36 (KHTML, like Gecko) Chrome/136.0.0.0 Safari/537.36" version="27.0.3" pages="2">
  <diagram name="Page-1" id="Vf0vh-vwN9zKhiYHTM3I">
    <mxGraphModel dx="2524" dy="1182" grid="0" gridSize="10" guides="1" tooltips="1" connect="1" arrows="1" fold="1" page="1" pageScale="1" pageWidth="850" pageHeight="1100" math="0" shadow="0">
      <root>
        <mxCell id="0" />
        <mxCell id="1" parent="0" />
        <mxCell id="4iA6EVEhk58QaubGC5kX-1" value="" style="whiteSpace=wrap;html=1;aspect=fixed;" parent="1" vertex="1">
          <mxGeometry x="134" y="123" width="114" height="114" as="geometry" />
        </mxCell>
        <mxCell id="4iA6EVEhk58QaubGC5kX-2" value="" style="ellipse;whiteSpace=wrap;html=1;aspect=fixed;" parent="1" vertex="1">
          <mxGeometry x="170" y="273" width="18" height="18" as="geometry" />
        </mxCell>
        <mxCell id="4iA6EVEhk58QaubGC5kX-3" value="" style="ellipse;whiteSpace=wrap;html=1;aspect=fixed;" parent="1" vertex="1">
          <mxGeometry x="160" y="327" width="80" height="80" as="geometry" />
        </mxCell>
        <mxCell id="4iA6EVEhk58QaubGC5kX-4" value="" style="whiteSpace=wrap;html=1;aspect=fixed;" parent="1" vertex="1">
          <mxGeometry x="1086" y="208" width="114" height="114" as="geometry" />
        </mxCell>
        <mxCell id="4iA6EVEhk58QaubGC5kX-6" value="&lt;font style=&quot;font-size: 24px;&quot;&gt;A&lt;/font&gt;" style="text;html=1;align=center;verticalAlign=middle;whiteSpace=wrap;rounded=0;" parent="1" vertex="1">
          <mxGeometry x="1088" y="210" width="60" height="30" as="geometry" />
        </mxCell>
        <mxCell id="4iA6EVEhk58QaubGC5kX-7" value="" style="ellipse;whiteSpace=wrap;html=1;aspect=fixed;" parent="1" vertex="1">
          <mxGeometry x="1103" y="276" width="18" height="18" as="geometry" />
        </mxCell>
        <mxCell id="4iA6EVEhk58QaubGC5kX-8" value="" style="ellipse;whiteSpace=wrap;html=1;aspect=fixed;" parent="1" vertex="1">
          <mxGeometry x="1156" y="276" width="18" height="18" as="geometry" />
        </mxCell>
        <mxCell id="4iA6EVEhk58QaubGC5kX-9" value="" style="whiteSpace=wrap;html=1;aspect=fixed;" parent="1" vertex="1">
          <mxGeometry x="1575" y="118" width="114" height="114" as="geometry" />
        </mxCell>
        <mxCell id="4iA6EVEhk58QaubGC5kX-10" value="&lt;font style=&quot;font-size: 24px;&quot;&gt;D&lt;/font&gt;" style="text;html=1;align=center;verticalAlign=middle;whiteSpace=wrap;rounded=0;" parent="1" vertex="1">
          <mxGeometry x="1577" y="120" width="60" height="30" as="geometry" />
        </mxCell>
        <mxCell id="4iA6EVEhk58QaubGC5kX-11" value="" style="ellipse;whiteSpace=wrap;html=1;aspect=fixed;" parent="1" vertex="1">
          <mxGeometry x="1592" y="186" width="18" height="18" as="geometry" />
        </mxCell>
        <mxCell id="4iA6EVEhk58QaubGC5kX-12" value="" style="ellipse;whiteSpace=wrap;html=1;aspect=fixed;" parent="1" vertex="1">
          <mxGeometry x="1645" y="186" width="18" height="18" as="geometry" />
        </mxCell>
        <mxCell id="4iA6EVEhk58QaubGC5kX-13" value="" style="whiteSpace=wrap;html=1;aspect=fixed;" parent="1" vertex="1">
          <mxGeometry x="1232" y="356" width="114" height="114" as="geometry" />
        </mxCell>
        <mxCell id="4iA6EVEhk58QaubGC5kX-14" value="&lt;font style=&quot;font-size: 24px;&quot;&gt;B&lt;/font&gt;" style="text;html=1;align=center;verticalAlign=middle;whiteSpace=wrap;rounded=0;" parent="1" vertex="1">
          <mxGeometry x="1234" y="358" width="60" height="30" as="geometry" />
        </mxCell>
        <mxCell id="4iA6EVEhk58QaubGC5kX-15" value="" style="ellipse;whiteSpace=wrap;html=1;aspect=fixed;" parent="1" vertex="1">
          <mxGeometry x="1280" y="423" width="18" height="18" as="geometry" />
        </mxCell>
        <mxCell id="4iA6EVEhk58QaubGC5kX-17" value="" style="whiteSpace=wrap;html=1;aspect=fixed;" parent="1" vertex="1">
          <mxGeometry x="1069" y="585" width="114" height="114" as="geometry" />
        </mxCell>
        <mxCell id="4iA6EVEhk58QaubGC5kX-18" value="&lt;font style=&quot;font-size: 24px;&quot;&gt;C&lt;/font&gt;" style="text;html=1;align=center;verticalAlign=middle;whiteSpace=wrap;rounded=0;" parent="1" vertex="1">
          <mxGeometry x="1071" y="587" width="60" height="30" as="geometry" />
        </mxCell>
        <mxCell id="4iA6EVEhk58QaubGC5kX-19" value="" style="ellipse;whiteSpace=wrap;html=1;aspect=fixed;" parent="1" vertex="1">
          <mxGeometry x="1117" y="652" width="18" height="18" as="geometry" />
        </mxCell>
        <mxCell id="4iA6EVEhk58QaubGC5kX-20" value="" style="whiteSpace=wrap;html=1;aspect=fixed;" parent="1" vertex="1">
          <mxGeometry x="1473" y="669" width="114" height="114" as="geometry" />
        </mxCell>
        <mxCell id="4iA6EVEhk58QaubGC5kX-21" value="&lt;font style=&quot;font-size: 24px;&quot;&gt;E&lt;/font&gt;" style="text;html=1;align=center;verticalAlign=middle;whiteSpace=wrap;rounded=0;" parent="1" vertex="1">
          <mxGeometry x="1475" y="671" width="60" height="30" as="geometry" />
        </mxCell>
        <mxCell id="4iA6EVEhk58QaubGC5kX-22" value="" style="ellipse;whiteSpace=wrap;html=1;aspect=fixed;" parent="1" vertex="1">
          <mxGeometry x="1496" y="727" width="18" height="18" as="geometry" />
        </mxCell>
        <mxCell id="4iA6EVEhk58QaubGC5kX-23" value="&lt;font style=&quot;font-size: 24px;&quot;&gt;PO&lt;/font&gt;" style="ellipse;whiteSpace=wrap;html=1;aspect=fixed;" parent="1" vertex="1">
          <mxGeometry x="1441" y="329" width="80" height="80" as="geometry" />
        </mxCell>
        <mxCell id="4iA6EVEhk58QaubGC5kX-24" value="&lt;font style=&quot;font-size: 24px;&quot;&gt;P1&lt;/font&gt;" style="ellipse;whiteSpace=wrap;html=1;aspect=fixed;" parent="1" vertex="1">
          <mxGeometry x="1086" y="396" width="80" height="80" as="geometry" />
        </mxCell>
        <mxCell id="4iA6EVEhk58QaubGC5kX-25" value="&lt;font style=&quot;font-size: 24px;&quot;&gt;P2&lt;/font&gt;" style="ellipse;whiteSpace=wrap;html=1;aspect=fixed;" parent="1" vertex="1">
          <mxGeometry x="1614" y="322" width="80" height="80" as="geometry" />
        </mxCell>
        <mxCell id="4iA6EVEhk58QaubGC5kX-26" value="&lt;font style=&quot;font-size: 24px;&quot;&gt;P3&lt;/font&gt;" style="ellipse;whiteSpace=wrap;html=1;aspect=fixed;" parent="1" vertex="1">
          <mxGeometry x="860" y="778" width="80" height="80" as="geometry" />
        </mxCell>
        <mxCell id="4iA6EVEhk58QaubGC5kX-27" value="" style="endArrow=classic;html=1;rounded=0;exitX=1;exitY=0.5;exitDx=0;exitDy=0;entryX=0;entryY=0.5;entryDx=0;entryDy=0;" parent="1" source="4iA6EVEhk58QaubGC5kX-8" target="4iA6EVEhk58QaubGC5kX-23" edge="1">
          <mxGeometry width="50" height="50" relative="1" as="geometry">
            <mxPoint x="1273" y="501" as="sourcePoint" />
            <mxPoint x="1323" y="451" as="targetPoint" />
          </mxGeometry>
        </mxCell>
        <mxCell id="4iA6EVEhk58QaubGC5kX-29" value="" style="endArrow=classic;html=1;rounded=0;exitX=1;exitY=0.5;exitDx=0;exitDy=0;entryX=0.343;entryY=0.981;entryDx=0;entryDy=0;entryPerimeter=0;" parent="1" source="4iA6EVEhk58QaubGC5kX-19" target="4iA6EVEhk58QaubGC5kX-23" edge="1">
          <mxGeometry width="50" height="50" relative="1" as="geometry">
            <mxPoint x="1194" y="380.5" as="sourcePoint" />
            <mxPoint x="1381" y="367.5" as="targetPoint" />
          </mxGeometry>
        </mxCell>
        <mxCell id="4iA6EVEhk58QaubGC5kX-32" value="" style="endArrow=classic;html=1;rounded=0;entryX=1;entryY=0;entryDx=0;entryDy=0;" parent="1" source="4iA6EVEhk58QaubGC5kX-11" target="4iA6EVEhk58QaubGC5kX-23" edge="1">
          <mxGeometry width="50" height="50" relative="1" as="geometry">
            <mxPoint x="1202" y="736" as="sourcePoint" />
            <mxPoint x="1436" y="337" as="targetPoint" />
          </mxGeometry>
        </mxCell>
        <mxCell id="4iA6EVEhk58QaubGC5kX-33" value="" style="endArrow=classic;html=1;rounded=0;exitX=0;exitY=1;exitDx=0;exitDy=0;entryX=0.991;entryY=0.55;entryDx=0;entryDy=0;entryPerimeter=0;" parent="1" source="4iA6EVEhk58QaubGC5kX-23" target="4iA6EVEhk58QaubGC5kX-13" edge="1">
          <mxGeometry width="50" height="50" relative="1" as="geometry">
            <mxPoint x="1488" y="402" as="sourcePoint" />
            <mxPoint x="1538" y="352" as="targetPoint" />
          </mxGeometry>
        </mxCell>
        <mxCell id="4iA6EVEhk58QaubGC5kX-34" value="" style="endArrow=classic;html=1;rounded=0;exitX=0.5;exitY=1;exitDx=0;exitDy=0;entryX=0.137;entryY=-0.046;entryDx=0;entryDy=0;entryPerimeter=0;" parent="1" source="4iA6EVEhk58QaubGC5kX-23" target="4iA6EVEhk58QaubGC5kX-21" edge="1">
          <mxGeometry width="50" height="50" relative="1" as="geometry">
            <mxPoint x="1514" y="348" as="sourcePoint" />
            <mxPoint x="1334" y="535" as="targetPoint" />
          </mxGeometry>
        </mxCell>
        <mxCell id="4iA6EVEhk58QaubGC5kX-35" value="" style="endArrow=classic;html=1;rounded=0;entryX=0.313;entryY=0;entryDx=0;entryDy=0;entryPerimeter=0;exitX=0;exitY=1;exitDx=0;exitDy=0;" parent="1" source="4iA6EVEhk58QaubGC5kX-7" target="4iA6EVEhk58QaubGC5kX-24" edge="1">
          <mxGeometry width="50" height="50" relative="1" as="geometry">
            <mxPoint x="1093" y="538" as="sourcePoint" />
            <mxPoint x="1143" y="488" as="targetPoint" />
          </mxGeometry>
        </mxCell>
        <mxCell id="4iA6EVEhk58QaubGC5kX-36" value="" style="endArrow=classic;html=1;rounded=0;entryX=1;entryY=0.5;entryDx=0;entryDy=0;exitX=0;exitY=0.5;exitDx=0;exitDy=0;" parent="1" source="4iA6EVEhk58QaubGC5kX-15" target="4iA6EVEhk58QaubGC5kX-24" edge="1">
          <mxGeometry width="50" height="50" relative="1" as="geometry">
            <mxPoint x="1043" y="575" as="sourcePoint" />
            <mxPoint x="1093" y="525" as="targetPoint" />
          </mxGeometry>
        </mxCell>
        <mxCell id="4iA6EVEhk58QaubGC5kX-37" value="" style="endArrow=classic;html=1;rounded=0;exitX=0.5;exitY=1;exitDx=0;exitDy=0;entryX=1;entryY=0;entryDx=0;entryDy=0;" parent="1" source="4iA6EVEhk58QaubGC5kX-24" target="4iA6EVEhk58QaubGC5kX-18" edge="1">
          <mxGeometry width="50" height="50" relative="1" as="geometry">
            <mxPoint x="1071" y="613" as="sourcePoint" />
            <mxPoint x="1141" y="762" as="targetPoint" />
          </mxGeometry>
        </mxCell>
        <mxCell id="4iA6EVEhk58QaubGC5kX-38" value="" style="endArrow=classic;html=1;rounded=0;exitX=0.616;exitY=0.976;exitDx=0;exitDy=0;exitPerimeter=0;entryX=0;entryY=0.351;entryDx=0;entryDy=0;entryPerimeter=0;" parent="1" source="4iA6EVEhk58QaubGC5kX-24" target="4iA6EVEhk58QaubGC5kX-20" edge="1">
          <mxGeometry width="50" height="50" relative="1" as="geometry">
            <mxPoint x="1221" y="589" as="sourcePoint" />
            <mxPoint x="1271" y="539" as="targetPoint" />
          </mxGeometry>
        </mxCell>
        <mxCell id="4iA6EVEhk58QaubGC5kX-40" value="" style="endArrow=classic;html=1;rounded=0;entryX=0.5;entryY=0;entryDx=0;entryDy=0;exitX=1;exitY=1;exitDx=0;exitDy=0;" parent="1" source="4iA6EVEhk58QaubGC5kX-12" target="4iA6EVEhk58QaubGC5kX-25" edge="1">
          <mxGeometry width="50" height="50" relative="1" as="geometry">
            <mxPoint x="1618" y="557" as="sourcePoint" />
            <mxPoint x="1668" y="507" as="targetPoint" />
          </mxGeometry>
        </mxCell>
        <mxCell id="4iA6EVEhk58QaubGC5kX-41" value="" style="endArrow=classic;html=1;rounded=0;entryX=0.75;entryY=0;entryDx=0;entryDy=0;" parent="1" source="4iA6EVEhk58QaubGC5kX-25" target="4iA6EVEhk58QaubGC5kX-20" edge="1">
          <mxGeometry width="50" height="50" relative="1" as="geometry">
            <mxPoint x="1584" y="543" as="sourcePoint" />
            <mxPoint x="1634" y="493" as="targetPoint" />
          </mxGeometry>
        </mxCell>
        <mxCell id="4iA6EVEhk58QaubGC5kX-42" value="" style="endArrow=classic;html=1;rounded=0;entryX=0.016;entryY=0.347;entryDx=0;entryDy=0;entryPerimeter=0;" parent="1" source="4iA6EVEhk58QaubGC5kX-26" target="4iA6EVEhk58QaubGC5kX-4" edge="1">
          <mxGeometry width="50" height="50" relative="1" as="geometry">
            <mxPoint x="1228" y="80" as="sourcePoint" />
            <mxPoint x="1278" y="30" as="targetPoint" />
          </mxGeometry>
        </mxCell>
        <mxCell id="4iA6EVEhk58QaubGC5kX-43" value="" style="endArrow=classic;html=1;rounded=0;exitX=1;exitY=0;exitDx=0;exitDy=0;" parent="1" source="4iA6EVEhk58QaubGC5kX-26" target="4iA6EVEhk58QaubGC5kX-17" edge="1">
          <mxGeometry width="50" height="50" relative="1" as="geometry">
            <mxPoint x="909" y="862" as="sourcePoint" />
            <mxPoint x="959" y="812" as="targetPoint" />
          </mxGeometry>
        </mxCell>
        <mxCell id="4iA6EVEhk58QaubGC5kX-45" value="" style="endArrow=classic;html=1;rounded=0;exitX=1.043;exitY=0.406;exitDx=0;exitDy=0;exitPerimeter=0;entryX=0;entryY=0.5;entryDx=0;entryDy=0;" parent="1" source="4iA6EVEhk58QaubGC5kX-26" target="4iA6EVEhk58QaubGC5kX-20" edge="1">
          <mxGeometry width="50" height="50" relative="1" as="geometry">
            <mxPoint x="896" y="893" as="sourcePoint" />
            <mxPoint x="946" y="843" as="targetPoint" />
          </mxGeometry>
        </mxCell>
        <mxCell id="6J1TdsOpVTQ6iudbTNR--1" value="" style="ellipse;whiteSpace=wrap;html=1;aspect=fixed;" vertex="1" parent="1">
          <mxGeometry x="1103" y="249" width="18" height="18" as="geometry" />
        </mxCell>
        <mxCell id="6J1TdsOpVTQ6iudbTNR--2" value="" style="ellipse;whiteSpace=wrap;html=1;aspect=fixed;" vertex="1" parent="1">
          <mxGeometry x="1153" y="245" width="18" height="18" as="geometry" />
        </mxCell>
        <mxCell id="6J1TdsOpVTQ6iudbTNR--4" value="" style="ellipse;whiteSpace=wrap;html=1;aspect=fixed;" vertex="1" parent="1">
          <mxGeometry x="1645" y="153" width="18" height="18" as="geometry" />
        </mxCell>
        <mxCell id="6J1TdsOpVTQ6iudbTNR--5" value="" style="ellipse;whiteSpace=wrap;html=1;aspect=fixed;" vertex="1" parent="1">
          <mxGeometry x="1083" y="644" width="18" height="18" as="geometry" />
        </mxCell>
        <mxCell id="6J1TdsOpVTQ6iudbTNR--6" value="" style="ellipse;whiteSpace=wrap;html=1;aspect=fixed;" vertex="1" parent="1">
          <mxGeometry x="1596" y="153" width="18" height="18" as="geometry" />
        </mxCell>
        <mxCell id="6J1TdsOpVTQ6iudbTNR--7" value="" style="ellipse;whiteSpace=wrap;html=1;aspect=fixed;" vertex="1" parent="1">
          <mxGeometry x="1315" y="419" width="18" height="18" as="geometry" />
        </mxCell>
      </root>
    </mxGraphModel>
  </diagram>
  <diagram id="j926smelX7DzOxHCvxJB" name="Page-2">
    <mxGraphModel dx="3150" dy="1380" grid="0" gridSize="10" guides="1" tooltips="1" connect="1" arrows="1" fold="1" page="1" pageScale="1" pageWidth="850" pageHeight="1100" math="0" shadow="0">
      <root>
        <mxCell id="0" />
        <mxCell id="1" parent="0" />
        <mxCell id="zttnPAp60mIIOHk8R7d_-1" value="" style="whiteSpace=wrap;html=1;aspect=fixed;" vertex="1" parent="1">
          <mxGeometry x="134" y="123" width="114" height="114" as="geometry" />
        </mxCell>
        <mxCell id="zttnPAp60mIIOHk8R7d_-2" value="" style="ellipse;whiteSpace=wrap;html=1;aspect=fixed;" vertex="1" parent="1">
          <mxGeometry x="170" y="273" width="18" height="18" as="geometry" />
        </mxCell>
        <mxCell id="zttnPAp60mIIOHk8R7d_-3" value="" style="ellipse;whiteSpace=wrap;html=1;aspect=fixed;" vertex="1" parent="1">
          <mxGeometry x="160" y="327" width="80" height="80" as="geometry" />
        </mxCell>
        <mxCell id="zttnPAp60mIIOHk8R7d_-4" value="&lt;font style=&quot;font-size: 24px;&quot;&gt;Text&lt;/font&gt;" style="text;html=1;align=center;verticalAlign=middle;whiteSpace=wrap;rounded=0;" vertex="1" parent="1">
          <mxGeometry x="137" y="62" width="60" height="30" as="geometry" />
        </mxCell>
        <mxCell id="zttnPAp60mIIOHk8R7d_-5" value="" style="whiteSpace=wrap;html=1;aspect=fixed;" vertex="1" parent="1">
          <mxGeometry x="488" y="120" width="114" height="114" as="geometry" />
        </mxCell>
        <mxCell id="zttnPAp60mIIOHk8R7d_-6" value="" style="ellipse;whiteSpace=wrap;html=1;aspect=fixed;" vertex="1" parent="1">
          <mxGeometry x="512" y="168" width="18" height="18" as="geometry" />
        </mxCell>
        <mxCell id="zttnPAp60mIIOHk8R7d_-9" value="" style="ellipse;whiteSpace=wrap;html=1;aspect=fixed;" vertex="1" parent="1">
          <mxGeometry x="552" y="195" width="18" height="18" as="geometry" />
        </mxCell>
        <mxCell id="zttnPAp60mIIOHk8R7d_-10" value="&lt;font style=&quot;font-size: 24px;&quot;&gt;R1&lt;/font&gt;" style="text;html=1;align=center;verticalAlign=middle;whiteSpace=wrap;rounded=0;" vertex="1" parent="1">
          <mxGeometry x="488" y="122" width="60" height="30" as="geometry" />
        </mxCell>
        <mxCell id="zttnPAp60mIIOHk8R7d_-11" value="&lt;font style=&quot;font-size: 24px;&quot;&gt;P1&lt;/font&gt;" style="ellipse;whiteSpace=wrap;html=1;aspect=fixed;" vertex="1" parent="1">
          <mxGeometry x="518" y="318" width="80" height="80" as="geometry" />
        </mxCell>
        <mxCell id="zttnPAp60mIIOHk8R7d_-12" value="" style="whiteSpace=wrap;html=1;aspect=fixed;" vertex="1" parent="1">
          <mxGeometry x="503" y="486" width="114" height="114" as="geometry" />
        </mxCell>
        <mxCell id="zttnPAp60mIIOHk8R7d_-13" value="" style="ellipse;whiteSpace=wrap;html=1;aspect=fixed;" vertex="1" parent="1">
          <mxGeometry x="560" y="543" width="18" height="18" as="geometry" />
        </mxCell>
        <mxCell id="zttnPAp60mIIOHk8R7d_-15" value="&lt;font style=&quot;font-size: 24px;&quot;&gt;R5&lt;/font&gt;" style="text;html=1;align=center;verticalAlign=middle;whiteSpace=wrap;rounded=0;" vertex="1" parent="1">
          <mxGeometry x="503" y="488" width="60" height="30" as="geometry" />
        </mxCell>
        <mxCell id="zttnPAp60mIIOHk8R7d_-16" value="&lt;font style=&quot;font-size: 24px;&quot;&gt;P2&lt;/font&gt;" style="ellipse;whiteSpace=wrap;html=1;aspect=fixed;" vertex="1" parent="1">
          <mxGeometry x="746" y="122" width="80" height="80" as="geometry" />
        </mxCell>
        <mxCell id="zttnPAp60mIIOHk8R7d_-17" value="" style="whiteSpace=wrap;html=1;aspect=fixed;" vertex="1" parent="1">
          <mxGeometry x="739" y="305" width="114" height="114" as="geometry" />
        </mxCell>
        <mxCell id="zttnPAp60mIIOHk8R7d_-18" value="" style="ellipse;whiteSpace=wrap;html=1;aspect=fixed;" vertex="1" parent="1">
          <mxGeometry x="777" y="349" width="18" height="18" as="geometry" />
        </mxCell>
        <mxCell id="zttnPAp60mIIOHk8R7d_-19" value="" style="ellipse;whiteSpace=wrap;html=1;aspect=fixed;" vertex="1" parent="1">
          <mxGeometry x="818" y="362" width="18" height="18" as="geometry" />
        </mxCell>
        <mxCell id="zttnPAp60mIIOHk8R7d_-20" value="&lt;font style=&quot;font-size: 24px;&quot;&gt;R4&lt;/font&gt;" style="text;html=1;align=center;verticalAlign=middle;whiteSpace=wrap;rounded=0;" vertex="1" parent="1">
          <mxGeometry x="739" y="307" width="60" height="30" as="geometry" />
        </mxCell>
        <mxCell id="zttnPAp60mIIOHk8R7d_-22" value="&lt;font style=&quot;font-size: 24px;&quot;&gt;P3&lt;/font&gt;" style="ellipse;whiteSpace=wrap;html=1;aspect=fixed;" vertex="1" parent="1">
          <mxGeometry x="756" y="507" width="80" height="80" as="geometry" />
        </mxCell>
        <mxCell id="zttnPAp60mIIOHk8R7d_-23" value="&lt;font style=&quot;font-size: 24px;&quot;&gt;P4&lt;/font&gt;" style="ellipse;whiteSpace=wrap;html=1;aspect=fixed;" vertex="1" parent="1">
          <mxGeometry x="1023" y="326" width="80" height="80" as="geometry" />
        </mxCell>
        <mxCell id="zttnPAp60mIIOHk8R7d_-24" value="" style="whiteSpace=wrap;html=1;aspect=fixed;" vertex="1" parent="1">
          <mxGeometry x="1003" y="109" width="114" height="114" as="geometry" />
        </mxCell>
        <mxCell id="zttnPAp60mIIOHk8R7d_-25" value="" style="ellipse;whiteSpace=wrap;html=1;aspect=fixed;" vertex="1" parent="1">
          <mxGeometry x="1049" y="168" width="18" height="18" as="geometry" />
        </mxCell>
        <mxCell id="zttnPAp60mIIOHk8R7d_-26" value="&lt;font style=&quot;font-size: 24px;&quot;&gt;R2&lt;/font&gt;" style="text;html=1;align=center;verticalAlign=middle;whiteSpace=wrap;rounded=0;" vertex="1" parent="1">
          <mxGeometry x="1003" y="111" width="60" height="30" as="geometry" />
        </mxCell>
        <mxCell id="zttnPAp60mIIOHk8R7d_-27" value="" style="whiteSpace=wrap;html=1;aspect=fixed;" vertex="1" parent="1">
          <mxGeometry x="1006" y="503" width="114" height="114" as="geometry" />
        </mxCell>
        <mxCell id="zttnPAp60mIIOHk8R7d_-28" value="" style="ellipse;whiteSpace=wrap;html=1;aspect=fixed;" vertex="1" parent="1">
          <mxGeometry x="1044" y="547" width="18" height="18" as="geometry" />
        </mxCell>
        <mxCell id="zttnPAp60mIIOHk8R7d_-48" style="rounded=0;orthogonalLoop=1;jettySize=auto;html=1;exitX=1;exitY=0.5;exitDx=0;exitDy=0;entryX=0.5;entryY=1;entryDx=0;entryDy=0;" edge="1" parent="1" source="zttnPAp60mIIOHk8R7d_-29" target="zttnPAp60mIIOHk8R7d_-31">
          <mxGeometry relative="1" as="geometry" />
        </mxCell>
        <mxCell id="zttnPAp60mIIOHk8R7d_-29" value="" style="ellipse;whiteSpace=wrap;html=1;aspect=fixed;" vertex="1" parent="1">
          <mxGeometry x="1083" y="582" width="18" height="18" as="geometry" />
        </mxCell>
        <mxCell id="zttnPAp60mIIOHk8R7d_-30" value="&lt;font style=&quot;font-size: 24px;&quot;&gt;R6&lt;/font&gt;" style="text;html=1;align=center;verticalAlign=middle;whiteSpace=wrap;rounded=0;" vertex="1" parent="1">
          <mxGeometry x="1006" y="505" width="60" height="30" as="geometry" />
        </mxCell>
        <mxCell id="zttnPAp60mIIOHk8R7d_-31" value="&lt;font style=&quot;font-size: 24px;&quot;&gt;P5&lt;/font&gt;" style="ellipse;whiteSpace=wrap;html=1;aspect=fixed;" vertex="1" parent="1">
          <mxGeometry x="1256" y="322" width="80" height="80" as="geometry" />
        </mxCell>
        <mxCell id="zttnPAp60mIIOHk8R7d_-32" value="" style="whiteSpace=wrap;html=1;aspect=fixed;" vertex="1" parent="1">
          <mxGeometry x="1270" y="84" width="114" height="114" as="geometry" />
        </mxCell>
        <mxCell id="zttnPAp60mIIOHk8R7d_-33" value="" style="ellipse;whiteSpace=wrap;html=1;aspect=fixed;" vertex="1" parent="1">
          <mxGeometry x="1308" y="128" width="18" height="18" as="geometry" />
        </mxCell>
        <mxCell id="zttnPAp60mIIOHk8R7d_-47" style="rounded=0;orthogonalLoop=1;jettySize=auto;html=1;exitX=0.5;exitY=1;exitDx=0;exitDy=0;" edge="1" parent="1" source="zttnPAp60mIIOHk8R7d_-34" target="zttnPAp60mIIOHk8R7d_-31">
          <mxGeometry relative="1" as="geometry" />
        </mxCell>
        <mxCell id="zttnPAp60mIIOHk8R7d_-34" value="" style="ellipse;whiteSpace=wrap;html=1;aspect=fixed;" vertex="1" parent="1">
          <mxGeometry x="1347" y="163" width="18" height="18" as="geometry" />
        </mxCell>
        <mxCell id="zttnPAp60mIIOHk8R7d_-35" value="&lt;font style=&quot;font-size: 24px;&quot;&gt;R3&lt;/font&gt;" style="text;html=1;align=center;verticalAlign=middle;whiteSpace=wrap;rounded=0;" vertex="1" parent="1">
          <mxGeometry x="1270" y="86" width="60" height="30" as="geometry" />
        </mxCell>
        <mxCell id="zttnPAp60mIIOHk8R7d_-36" value="" style="endArrow=classic;html=1;rounded=0;exitX=0.5;exitY=0;exitDx=0;exitDy=0;entryX=0.632;entryY=0.962;entryDx=0;entryDy=0;entryPerimeter=0;" edge="1" parent="1" source="zttnPAp60mIIOHk8R7d_-13" target="zttnPAp60mIIOHk8R7d_-11">
          <mxGeometry width="50" height="50" relative="1" as="geometry">
            <mxPoint x="709" y="684" as="sourcePoint" />
            <mxPoint x="759" y="634" as="targetPoint" />
          </mxGeometry>
        </mxCell>
        <mxCell id="zttnPAp60mIIOHk8R7d_-37" value="" style="endArrow=classic;html=1;rounded=0;entryX=0.5;entryY=0;entryDx=0;entryDy=0;exitX=0.5;exitY=1;exitDx=0;exitDy=0;" edge="1" parent="1" source="zttnPAp60mIIOHk8R7d_-9" target="zttnPAp60mIIOHk8R7d_-11">
          <mxGeometry width="50" height="50" relative="1" as="geometry">
            <mxPoint x="406" y="478" as="sourcePoint" />
            <mxPoint x="456" y="428" as="targetPoint" />
          </mxGeometry>
        </mxCell>
        <mxCell id="zttnPAp60mIIOHk8R7d_-38" value="" style="endArrow=classic;html=1;rounded=0;exitX=1;exitY=0;exitDx=0;exitDy=0;entryX=0;entryY=0.5;entryDx=0;entryDy=0;" edge="1" parent="1" source="zttnPAp60mIIOHk8R7d_-6" target="zttnPAp60mIIOHk8R7d_-16">
          <mxGeometry width="50" height="50" relative="1" as="geometry">
            <mxPoint x="613" y="74" as="sourcePoint" />
            <mxPoint x="663" y="24" as="targetPoint" />
          </mxGeometry>
        </mxCell>
        <mxCell id="zttnPAp60mIIOHk8R7d_-39" value="" style="endArrow=classic;html=1;rounded=0;exitX=0.5;exitY=0;exitDx=0;exitDy=0;entryX=0.5;entryY=1;entryDx=0;entryDy=0;" edge="1" parent="1" source="zttnPAp60mIIOHk8R7d_-18" target="zttnPAp60mIIOHk8R7d_-16">
          <mxGeometry width="50" height="50" relative="1" as="geometry">
            <mxPoint x="701" y="505" as="sourcePoint" />
            <mxPoint x="688" y="343" as="targetPoint" />
          </mxGeometry>
        </mxCell>
        <mxCell id="zttnPAp60mIIOHk8R7d_-40" value="" style="endArrow=classic;html=1;rounded=0;exitX=1;exitY=0.5;exitDx=0;exitDy=0;entryX=0;entryY=0.5;entryDx=0;entryDy=0;" edge="1" parent="1" source="zttnPAp60mIIOHk8R7d_-11" target="zttnPAp60mIIOHk8R7d_-17">
          <mxGeometry width="50" height="50" relative="1" as="geometry">
            <mxPoint x="696" y="518" as="sourcePoint" />
            <mxPoint x="683" y="356" as="targetPoint" />
          </mxGeometry>
        </mxCell>
        <mxCell id="zttnPAp60mIIOHk8R7d_-41" value="" style="endArrow=classic;html=1;rounded=0;entryX=0.5;entryY=1;entryDx=0;entryDy=0;" edge="1" parent="1" source="zttnPAp60mIIOHk8R7d_-22" target="zttnPAp60mIIOHk8R7d_-17">
          <mxGeometry width="50" height="50" relative="1" as="geometry">
            <mxPoint x="712" y="590" as="sourcePoint" />
            <mxPoint x="699" y="428" as="targetPoint" />
          </mxGeometry>
        </mxCell>
        <mxCell id="zttnPAp60mIIOHk8R7d_-42" value="" style="endArrow=classic;html=1;rounded=0;exitX=0;exitY=0;exitDx=0;exitDy=0;entryX=1;entryY=0.5;entryDx=0;entryDy=0;" edge="1" parent="1" source="zttnPAp60mIIOHk8R7d_-28" target="zttnPAp60mIIOHk8R7d_-22">
          <mxGeometry width="50" height="50" relative="1" as="geometry">
            <mxPoint x="923" y="775" as="sourcePoint" />
            <mxPoint x="910" y="613" as="targetPoint" />
          </mxGeometry>
        </mxCell>
        <mxCell id="zttnPAp60mIIOHk8R7d_-43" value="" style="endArrow=classic;html=1;rounded=0;exitX=1;exitY=0;exitDx=0;exitDy=0;entryX=0;entryY=0.5;entryDx=0;entryDy=0;" edge="1" parent="1" source="zttnPAp60mIIOHk8R7d_-19" target="zttnPAp60mIIOHk8R7d_-23">
          <mxGeometry width="50" height="50" relative="1" as="geometry">
            <mxPoint x="921" y="764" as="sourcePoint" />
            <mxPoint x="908" y="602" as="targetPoint" />
          </mxGeometry>
        </mxCell>
        <mxCell id="zttnPAp60mIIOHk8R7d_-44" value="" style="endArrow=classic;html=1;rounded=0;exitX=1;exitY=0.5;exitDx=0;exitDy=0;entryX=0.005;entryY=0.429;entryDx=0;entryDy=0;entryPerimeter=0;" edge="1" parent="1" source="zttnPAp60mIIOHk8R7d_-16" target="zttnPAp60mIIOHk8R7d_-24">
          <mxGeometry width="50" height="50" relative="1" as="geometry">
            <mxPoint x="942" y="448" as="sourcePoint" />
            <mxPoint x="929" y="286" as="targetPoint" />
          </mxGeometry>
        </mxCell>
        <mxCell id="zttnPAp60mIIOHk8R7d_-45" value="" style="endArrow=classic;html=1;rounded=0;exitX=0.5;exitY=1;exitDx=0;exitDy=0;" edge="1" parent="1" source="zttnPAp60mIIOHk8R7d_-25" target="zttnPAp60mIIOHk8R7d_-23">
          <mxGeometry width="50" height="50" relative="1" as="geometry">
            <mxPoint x="1216" y="527" as="sourcePoint" />
            <mxPoint x="1203" y="365" as="targetPoint" />
          </mxGeometry>
        </mxCell>
        <mxCell id="zttnPAp60mIIOHk8R7d_-46" value="" style="endArrow=classic;html=1;rounded=0;exitX=0.5;exitY=1;exitDx=0;exitDy=0;entryX=0.5;entryY=0;entryDx=0;entryDy=0;" edge="1" parent="1" source="zttnPAp60mIIOHk8R7d_-23" target="zttnPAp60mIIOHk8R7d_-27">
          <mxGeometry width="50" height="50" relative="1" as="geometry">
            <mxPoint x="1277" y="713" as="sourcePoint" />
            <mxPoint x="1264" y="551" as="targetPoint" />
          </mxGeometry>
        </mxCell>
        <mxCell id="zttnPAp60mIIOHk8R7d_-49" value="" style="whiteSpace=wrap;html=1;aspect=fixed;" vertex="1" parent="1">
          <mxGeometry x="518" y="1206" width="114" height="114" as="geometry" />
        </mxCell>
        <mxCell id="zttnPAp60mIIOHk8R7d_-50" value="" style="ellipse;whiteSpace=wrap;html=1;aspect=fixed;" vertex="1" parent="1">
          <mxGeometry x="542" y="1254" width="18" height="18" as="geometry" />
        </mxCell>
        <mxCell id="zttnPAp60mIIOHk8R7d_-51" value="" style="ellipse;whiteSpace=wrap;html=1;aspect=fixed;" vertex="1" parent="1">
          <mxGeometry x="582" y="1281" width="18" height="18" as="geometry" />
        </mxCell>
        <mxCell id="zttnPAp60mIIOHk8R7d_-52" value="&lt;font style=&quot;font-size: 24px;&quot;&gt;R1&lt;/font&gt;" style="text;html=1;align=center;verticalAlign=middle;whiteSpace=wrap;rounded=0;" vertex="1" parent="1">
          <mxGeometry x="518" y="1208" width="60" height="30" as="geometry" />
        </mxCell>
        <mxCell id="zttnPAp60mIIOHk8R7d_-53" value="&lt;font style=&quot;font-size: 24px;&quot;&gt;P1&lt;/font&gt;" style="ellipse;whiteSpace=wrap;html=1;aspect=fixed;" vertex="1" parent="1">
          <mxGeometry x="548" y="1404" width="80" height="80" as="geometry" />
        </mxCell>
        <mxCell id="zttnPAp60mIIOHk8R7d_-54" value="" style="whiteSpace=wrap;html=1;aspect=fixed;" vertex="1" parent="1">
          <mxGeometry x="533" y="1572" width="114" height="114" as="geometry" />
        </mxCell>
        <mxCell id="zttnPAp60mIIOHk8R7d_-55" value="" style="ellipse;whiteSpace=wrap;html=1;aspect=fixed;" vertex="1" parent="1">
          <mxGeometry x="590" y="1629" width="18" height="18" as="geometry" />
        </mxCell>
        <mxCell id="zttnPAp60mIIOHk8R7d_-56" value="&lt;font style=&quot;font-size: 24px;&quot;&gt;R5&lt;/font&gt;" style="text;html=1;align=center;verticalAlign=middle;whiteSpace=wrap;rounded=0;" vertex="1" parent="1">
          <mxGeometry x="533" y="1574" width="60" height="30" as="geometry" />
        </mxCell>
        <mxCell id="zttnPAp60mIIOHk8R7d_-57" value="&lt;font style=&quot;font-size: 24px;&quot;&gt;P2&lt;/font&gt;" style="ellipse;whiteSpace=wrap;html=1;aspect=fixed;" vertex="1" parent="1">
          <mxGeometry x="776" y="1208" width="80" height="80" as="geometry" />
        </mxCell>
        <mxCell id="zttnPAp60mIIOHk8R7d_-58" value="" style="whiteSpace=wrap;html=1;aspect=fixed;" vertex="1" parent="1">
          <mxGeometry x="769" y="1391" width="114" height="114" as="geometry" />
        </mxCell>
        <mxCell id="zttnPAp60mIIOHk8R7d_-59" value="" style="ellipse;whiteSpace=wrap;html=1;aspect=fixed;" vertex="1" parent="1">
          <mxGeometry x="807" y="1435" width="18" height="18" as="geometry" />
        </mxCell>
        <mxCell id="zttnPAp60mIIOHk8R7d_-60" value="" style="ellipse;whiteSpace=wrap;html=1;aspect=fixed;" vertex="1" parent="1">
          <mxGeometry x="848" y="1448" width="18" height="18" as="geometry" />
        </mxCell>
        <mxCell id="zttnPAp60mIIOHk8R7d_-61" value="&lt;font style=&quot;font-size: 24px;&quot;&gt;R4&lt;/font&gt;" style="text;html=1;align=center;verticalAlign=middle;whiteSpace=wrap;rounded=0;" vertex="1" parent="1">
          <mxGeometry x="769" y="1393" width="60" height="30" as="geometry" />
        </mxCell>
        <mxCell id="zttnPAp60mIIOHk8R7d_-62" value="&lt;font style=&quot;font-size: 24px;&quot;&gt;P3&lt;/font&gt;" style="ellipse;whiteSpace=wrap;html=1;aspect=fixed;" vertex="1" parent="1">
          <mxGeometry x="786" y="1593" width="80" height="80" as="geometry" />
        </mxCell>
        <mxCell id="zttnPAp60mIIOHk8R7d_-63" value="&lt;font style=&quot;font-size: 24px;&quot;&gt;P4&lt;/font&gt;" style="ellipse;whiteSpace=wrap;html=1;aspect=fixed;" vertex="1" parent="1">
          <mxGeometry x="1053" y="1412" width="80" height="80" as="geometry" />
        </mxCell>
        <mxCell id="zttnPAp60mIIOHk8R7d_-64" value="" style="whiteSpace=wrap;html=1;aspect=fixed;" vertex="1" parent="1">
          <mxGeometry x="1033" y="1195" width="114" height="114" as="geometry" />
        </mxCell>
        <mxCell id="zttnPAp60mIIOHk8R7d_-65" value="" style="ellipse;whiteSpace=wrap;html=1;aspect=fixed;" vertex="1" parent="1">
          <mxGeometry x="1079" y="1254" width="18" height="18" as="geometry" />
        </mxCell>
        <mxCell id="zttnPAp60mIIOHk8R7d_-66" value="&lt;font style=&quot;font-size: 24px;&quot;&gt;R2&lt;/font&gt;" style="text;html=1;align=center;verticalAlign=middle;whiteSpace=wrap;rounded=0;" vertex="1" parent="1">
          <mxGeometry x="1033" y="1197" width="60" height="30" as="geometry" />
        </mxCell>
        <mxCell id="zttnPAp60mIIOHk8R7d_-67" value="" style="whiteSpace=wrap;html=1;aspect=fixed;" vertex="1" parent="1">
          <mxGeometry x="1036" y="1589" width="114" height="114" as="geometry" />
        </mxCell>
        <mxCell id="zttnPAp60mIIOHk8R7d_-68" value="" style="ellipse;whiteSpace=wrap;html=1;aspect=fixed;" vertex="1" parent="1">
          <mxGeometry x="1074" y="1633" width="18" height="18" as="geometry" />
        </mxCell>
        <mxCell id="zttnPAp60mIIOHk8R7d_-70" value="" style="ellipse;whiteSpace=wrap;html=1;aspect=fixed;" vertex="1" parent="1">
          <mxGeometry x="1113" y="1668" width="18" height="18" as="geometry" />
        </mxCell>
        <mxCell id="zttnPAp60mIIOHk8R7d_-71" value="&lt;font style=&quot;font-size: 24px;&quot;&gt;R6&lt;/font&gt;" style="text;html=1;align=center;verticalAlign=middle;whiteSpace=wrap;rounded=0;" vertex="1" parent="1">
          <mxGeometry x="1036" y="1591" width="60" height="30" as="geometry" />
        </mxCell>
        <mxCell id="zttnPAp60mIIOHk8R7d_-72" value="&lt;font style=&quot;font-size: 24px;&quot;&gt;P5&lt;/font&gt;" style="ellipse;whiteSpace=wrap;html=1;aspect=fixed;" vertex="1" parent="1">
          <mxGeometry x="1286" y="1408" width="80" height="80" as="geometry" />
        </mxCell>
        <mxCell id="zttnPAp60mIIOHk8R7d_-73" value="" style="whiteSpace=wrap;html=1;aspect=fixed;" vertex="1" parent="1">
          <mxGeometry x="1300" y="1170" width="114" height="114" as="geometry" />
        </mxCell>
        <mxCell id="zttnPAp60mIIOHk8R7d_-74" value="" style="ellipse;whiteSpace=wrap;html=1;aspect=fixed;" vertex="1" parent="1">
          <mxGeometry x="1338" y="1214" width="18" height="18" as="geometry" />
        </mxCell>
        <mxCell id="zttnPAp60mIIOHk8R7d_-76" value="" style="ellipse;whiteSpace=wrap;html=1;aspect=fixed;" vertex="1" parent="1">
          <mxGeometry x="1377" y="1249" width="18" height="18" as="geometry" />
        </mxCell>
        <mxCell id="zttnPAp60mIIOHk8R7d_-77" value="&lt;font style=&quot;font-size: 24px;&quot;&gt;R3&lt;/font&gt;" style="text;html=1;align=center;verticalAlign=middle;whiteSpace=wrap;rounded=0;" vertex="1" parent="1">
          <mxGeometry x="1300" y="1172" width="60" height="30" as="geometry" />
        </mxCell>
        <mxCell id="zttnPAp60mIIOHk8R7d_-78" value="" style="endArrow=classic;html=1;rounded=0;exitX=0.5;exitY=0;exitDx=0;exitDy=0;entryX=0.632;entryY=0.962;entryDx=0;entryDy=0;entryPerimeter=0;" edge="1" parent="1" source="zttnPAp60mIIOHk8R7d_-55" target="zttnPAp60mIIOHk8R7d_-53">
          <mxGeometry width="50" height="50" relative="1" as="geometry">
            <mxPoint x="739" y="1770" as="sourcePoint" />
            <mxPoint x="789" y="1720" as="targetPoint" />
          </mxGeometry>
        </mxCell>
        <mxCell id="zttnPAp60mIIOHk8R7d_-79" value="" style="endArrow=classic;html=1;rounded=0;entryX=0.5;entryY=0;entryDx=0;entryDy=0;exitX=0.5;exitY=1;exitDx=0;exitDy=0;" edge="1" parent="1" source="zttnPAp60mIIOHk8R7d_-51" target="zttnPAp60mIIOHk8R7d_-53">
          <mxGeometry width="50" height="50" relative="1" as="geometry">
            <mxPoint x="436" y="1564" as="sourcePoint" />
            <mxPoint x="486" y="1514" as="targetPoint" />
          </mxGeometry>
        </mxCell>
        <mxCell id="zttnPAp60mIIOHk8R7d_-80" value="" style="endArrow=classic;html=1;rounded=0;exitX=1;exitY=0;exitDx=0;exitDy=0;entryX=0;entryY=0.5;entryDx=0;entryDy=0;" edge="1" parent="1" source="zttnPAp60mIIOHk8R7d_-50" target="zttnPAp60mIIOHk8R7d_-57">
          <mxGeometry width="50" height="50" relative="1" as="geometry">
            <mxPoint x="643" y="1160" as="sourcePoint" />
            <mxPoint x="693" y="1110" as="targetPoint" />
          </mxGeometry>
        </mxCell>
        <mxCell id="zttnPAp60mIIOHk8R7d_-81" value="" style="endArrow=classic;html=1;rounded=0;exitX=0.5;exitY=0;exitDx=0;exitDy=0;entryX=0.5;entryY=1;entryDx=0;entryDy=0;" edge="1" parent="1" source="zttnPAp60mIIOHk8R7d_-59" target="zttnPAp60mIIOHk8R7d_-57">
          <mxGeometry width="50" height="50" relative="1" as="geometry">
            <mxPoint x="731" y="1591" as="sourcePoint" />
            <mxPoint x="718" y="1429" as="targetPoint" />
          </mxGeometry>
        </mxCell>
        <mxCell id="zttnPAp60mIIOHk8R7d_-82" value="" style="endArrow=classic;html=1;rounded=0;exitX=1;exitY=0.5;exitDx=0;exitDy=0;entryX=0;entryY=0.5;entryDx=0;entryDy=0;" edge="1" parent="1" source="zttnPAp60mIIOHk8R7d_-53" target="zttnPAp60mIIOHk8R7d_-58">
          <mxGeometry width="50" height="50" relative="1" as="geometry">
            <mxPoint x="726" y="1604" as="sourcePoint" />
            <mxPoint x="713" y="1442" as="targetPoint" />
          </mxGeometry>
        </mxCell>
        <mxCell id="zttnPAp60mIIOHk8R7d_-83" value="" style="endArrow=classic;html=1;rounded=0;entryX=0.5;entryY=1;entryDx=0;entryDy=0;" edge="1" parent="1" source="zttnPAp60mIIOHk8R7d_-62" target="zttnPAp60mIIOHk8R7d_-58">
          <mxGeometry width="50" height="50" relative="1" as="geometry">
            <mxPoint x="742" y="1676" as="sourcePoint" />
            <mxPoint x="729" y="1514" as="targetPoint" />
          </mxGeometry>
        </mxCell>
        <mxCell id="zttnPAp60mIIOHk8R7d_-84" value="" style="endArrow=classic;html=1;rounded=0;exitX=0;exitY=0;exitDx=0;exitDy=0;entryX=1;entryY=0.5;entryDx=0;entryDy=0;" edge="1" parent="1" source="zttnPAp60mIIOHk8R7d_-68" target="zttnPAp60mIIOHk8R7d_-62">
          <mxGeometry width="50" height="50" relative="1" as="geometry">
            <mxPoint x="953" y="1861" as="sourcePoint" />
            <mxPoint x="940" y="1699" as="targetPoint" />
          </mxGeometry>
        </mxCell>
        <mxCell id="zttnPAp60mIIOHk8R7d_-85" value="" style="endArrow=classic;html=1;rounded=0;exitX=1;exitY=0;exitDx=0;exitDy=0;entryX=0;entryY=0.5;entryDx=0;entryDy=0;" edge="1" parent="1" source="zttnPAp60mIIOHk8R7d_-60" target="zttnPAp60mIIOHk8R7d_-63">
          <mxGeometry width="50" height="50" relative="1" as="geometry">
            <mxPoint x="951" y="1850" as="sourcePoint" />
            <mxPoint x="938" y="1688" as="targetPoint" />
          </mxGeometry>
        </mxCell>
        <mxCell id="zttnPAp60mIIOHk8R7d_-86" value="" style="endArrow=classic;html=1;rounded=0;exitX=1;exitY=0.5;exitDx=0;exitDy=0;entryX=0.005;entryY=0.429;entryDx=0;entryDy=0;entryPerimeter=0;" edge="1" parent="1" source="zttnPAp60mIIOHk8R7d_-57" target="zttnPAp60mIIOHk8R7d_-64">
          <mxGeometry width="50" height="50" relative="1" as="geometry">
            <mxPoint x="972" y="1534" as="sourcePoint" />
            <mxPoint x="959" y="1372" as="targetPoint" />
          </mxGeometry>
        </mxCell>
        <mxCell id="zttnPAp60mIIOHk8R7d_-87" value="" style="endArrow=classic;html=1;rounded=0;exitX=0.5;exitY=1;exitDx=0;exitDy=0;" edge="1" parent="1" source="zttnPAp60mIIOHk8R7d_-65" target="zttnPAp60mIIOHk8R7d_-63">
          <mxGeometry width="50" height="50" relative="1" as="geometry">
            <mxPoint x="1246" y="1613" as="sourcePoint" />
            <mxPoint x="1233" y="1451" as="targetPoint" />
          </mxGeometry>
        </mxCell>
        <mxCell id="zttnPAp60mIIOHk8R7d_-88" value="" style="endArrow=classic;html=1;rounded=0;exitX=0.5;exitY=1;exitDx=0;exitDy=0;entryX=0.5;entryY=0;entryDx=0;entryDy=0;" edge="1" parent="1" source="zttnPAp60mIIOHk8R7d_-63" target="zttnPAp60mIIOHk8R7d_-67">
          <mxGeometry width="50" height="50" relative="1" as="geometry">
            <mxPoint x="1307" y="1799" as="sourcePoint" />
            <mxPoint x="1294" y="1637" as="targetPoint" />
          </mxGeometry>
        </mxCell>
        <mxCell id="zttnPAp60mIIOHk8R7d_-89" value="" style="whiteSpace=wrap;html=1;aspect=fixed;" vertex="1" parent="1">
          <mxGeometry x="590" y="2327" width="114" height="114" as="geometry" />
        </mxCell>
        <mxCell id="zttnPAp60mIIOHk8R7d_-90" value="" style="ellipse;whiteSpace=wrap;html=1;aspect=fixed;" vertex="1" parent="1">
          <mxGeometry x="614" y="2375" width="18" height="18" as="geometry" />
        </mxCell>
        <mxCell id="zttnPAp60mIIOHk8R7d_-91" value="" style="ellipse;whiteSpace=wrap;html=1;aspect=fixed;" vertex="1" parent="1">
          <mxGeometry x="654" y="2402" width="18" height="18" as="geometry" />
        </mxCell>
        <mxCell id="zttnPAp60mIIOHk8R7d_-92" value="&lt;font style=&quot;font-size: 24px;&quot;&gt;R1&lt;/font&gt;" style="text;html=1;align=center;verticalAlign=middle;whiteSpace=wrap;rounded=0;" vertex="1" parent="1">
          <mxGeometry x="590" y="2329" width="60" height="30" as="geometry" />
        </mxCell>
        <mxCell id="zttnPAp60mIIOHk8R7d_-93" value="&lt;font style=&quot;font-size: 24px;&quot;&gt;P1&lt;/font&gt;" style="ellipse;whiteSpace=wrap;html=1;aspect=fixed;" vertex="1" parent="1">
          <mxGeometry x="620" y="2525" width="80" height="80" as="geometry" />
        </mxCell>
        <mxCell id="zttnPAp60mIIOHk8R7d_-94" value="" style="whiteSpace=wrap;html=1;aspect=fixed;" vertex="1" parent="1">
          <mxGeometry x="605" y="2693" width="114" height="114" as="geometry" />
        </mxCell>
        <mxCell id="zttnPAp60mIIOHk8R7d_-95" value="" style="ellipse;whiteSpace=wrap;html=1;aspect=fixed;" vertex="1" parent="1">
          <mxGeometry x="662" y="2750" width="18" height="18" as="geometry" />
        </mxCell>
        <mxCell id="zttnPAp60mIIOHk8R7d_-96" value="&lt;font style=&quot;font-size: 24px;&quot;&gt;R5&lt;/font&gt;" style="text;html=1;align=center;verticalAlign=middle;whiteSpace=wrap;rounded=0;" vertex="1" parent="1">
          <mxGeometry x="605" y="2695" width="60" height="30" as="geometry" />
        </mxCell>
        <mxCell id="zttnPAp60mIIOHk8R7d_-97" value="&lt;font style=&quot;font-size: 24px;&quot;&gt;P2&lt;/font&gt;" style="ellipse;whiteSpace=wrap;html=1;aspect=fixed;" vertex="1" parent="1">
          <mxGeometry x="848" y="2329" width="80" height="80" as="geometry" />
        </mxCell>
        <mxCell id="zttnPAp60mIIOHk8R7d_-98" value="" style="whiteSpace=wrap;html=1;aspect=fixed;" vertex="1" parent="1">
          <mxGeometry x="841" y="2512" width="114" height="114" as="geometry" />
        </mxCell>
        <mxCell id="zttnPAp60mIIOHk8R7d_-99" value="" style="ellipse;whiteSpace=wrap;html=1;aspect=fixed;" vertex="1" parent="1">
          <mxGeometry x="879" y="2556" width="18" height="18" as="geometry" />
        </mxCell>
        <mxCell id="zttnPAp60mIIOHk8R7d_-100" value="" style="ellipse;whiteSpace=wrap;html=1;aspect=fixed;" vertex="1" parent="1">
          <mxGeometry x="920" y="2569" width="18" height="18" as="geometry" />
        </mxCell>
        <mxCell id="zttnPAp60mIIOHk8R7d_-101" value="&lt;font style=&quot;font-size: 24px;&quot;&gt;R4&lt;/font&gt;" style="text;html=1;align=center;verticalAlign=middle;whiteSpace=wrap;rounded=0;" vertex="1" parent="1">
          <mxGeometry x="841" y="2514" width="60" height="30" as="geometry" />
        </mxCell>
        <mxCell id="zttnPAp60mIIOHk8R7d_-102" value="&lt;font style=&quot;font-size: 24px;&quot;&gt;P3&lt;/font&gt;" style="ellipse;whiteSpace=wrap;html=1;aspect=fixed;" vertex="1" parent="1">
          <mxGeometry x="858" y="2714" width="80" height="80" as="geometry" />
        </mxCell>
        <mxCell id="zttnPAp60mIIOHk8R7d_-103" value="&lt;font style=&quot;font-size: 24px;&quot;&gt;P4&lt;/font&gt;" style="ellipse;whiteSpace=wrap;html=1;aspect=fixed;" vertex="1" parent="1">
          <mxGeometry x="1125" y="2533" width="80" height="80" as="geometry" />
        </mxCell>
        <mxCell id="zttnPAp60mIIOHk8R7d_-104" value="" style="whiteSpace=wrap;html=1;aspect=fixed;" vertex="1" parent="1">
          <mxGeometry x="1105" y="2316" width="114" height="114" as="geometry" />
        </mxCell>
        <mxCell id="zttnPAp60mIIOHk8R7d_-105" value="" style="ellipse;whiteSpace=wrap;html=1;aspect=fixed;" vertex="1" parent="1">
          <mxGeometry x="1151" y="2375" width="18" height="18" as="geometry" />
        </mxCell>
        <mxCell id="zttnPAp60mIIOHk8R7d_-106" value="&lt;font style=&quot;font-size: 24px;&quot;&gt;R2&lt;/font&gt;" style="text;html=1;align=center;verticalAlign=middle;whiteSpace=wrap;rounded=0;" vertex="1" parent="1">
          <mxGeometry x="1105" y="2318" width="60" height="30" as="geometry" />
        </mxCell>
        <mxCell id="zttnPAp60mIIOHk8R7d_-107" value="" style="whiteSpace=wrap;html=1;aspect=fixed;" vertex="1" parent="1">
          <mxGeometry x="1108" y="2710" width="114" height="114" as="geometry" />
        </mxCell>
        <mxCell id="zttnPAp60mIIOHk8R7d_-108" value="" style="ellipse;whiteSpace=wrap;html=1;aspect=fixed;" vertex="1" parent="1">
          <mxGeometry x="1146" y="2754" width="18" height="18" as="geometry" />
        </mxCell>
        <mxCell id="zttnPAp60mIIOHk8R7d_-109" value="" style="ellipse;whiteSpace=wrap;html=1;aspect=fixed;" vertex="1" parent="1">
          <mxGeometry x="1185" y="2789" width="18" height="18" as="geometry" />
        </mxCell>
        <mxCell id="zttnPAp60mIIOHk8R7d_-110" value="&lt;font style=&quot;font-size: 24px;&quot;&gt;R6&lt;/font&gt;" style="text;html=1;align=center;verticalAlign=middle;whiteSpace=wrap;rounded=0;" vertex="1" parent="1">
          <mxGeometry x="1108" y="2712" width="60" height="30" as="geometry" />
        </mxCell>
        <mxCell id="zttnPAp60mIIOHk8R7d_-111" value="&lt;font style=&quot;font-size: 24px;&quot;&gt;P5&lt;/font&gt;" style="ellipse;whiteSpace=wrap;html=1;aspect=fixed;" vertex="1" parent="1">
          <mxGeometry x="1358" y="2529" width="80" height="80" as="geometry" />
        </mxCell>
        <mxCell id="zttnPAp60mIIOHk8R7d_-112" value="" style="whiteSpace=wrap;html=1;aspect=fixed;" vertex="1" parent="1">
          <mxGeometry x="1369" y="2318" width="114" height="114" as="geometry" />
        </mxCell>
        <mxCell id="zttnPAp60mIIOHk8R7d_-113" value="" style="ellipse;whiteSpace=wrap;html=1;aspect=fixed;" vertex="1" parent="1">
          <mxGeometry x="1407" y="2362" width="18" height="18" as="geometry" />
        </mxCell>
        <mxCell id="zttnPAp60mIIOHk8R7d_-114" value="" style="ellipse;whiteSpace=wrap;html=1;aspect=fixed;" vertex="1" parent="1">
          <mxGeometry x="1446" y="2397" width="18" height="18" as="geometry" />
        </mxCell>
        <mxCell id="zttnPAp60mIIOHk8R7d_-115" value="&lt;font style=&quot;font-size: 24px;&quot;&gt;R3&lt;/font&gt;" style="text;html=1;align=center;verticalAlign=middle;whiteSpace=wrap;rounded=0;" vertex="1" parent="1">
          <mxGeometry x="1369" y="2320" width="60" height="30" as="geometry" />
        </mxCell>
        <mxCell id="zttnPAp60mIIOHk8R7d_-116" value="" style="endArrow=classic;html=1;rounded=0;exitX=0.5;exitY=0;exitDx=0;exitDy=0;entryX=0.632;entryY=0.962;entryDx=0;entryDy=0;entryPerimeter=0;" edge="1" parent="1" source="zttnPAp60mIIOHk8R7d_-95" target="zttnPAp60mIIOHk8R7d_-93">
          <mxGeometry width="50" height="50" relative="1" as="geometry">
            <mxPoint x="811" y="2891" as="sourcePoint" />
            <mxPoint x="861" y="2841" as="targetPoint" />
          </mxGeometry>
        </mxCell>
        <mxCell id="zttnPAp60mIIOHk8R7d_-117" value="" style="endArrow=classic;html=1;rounded=0;entryX=0.5;entryY=0;entryDx=0;entryDy=0;exitX=0.5;exitY=1;exitDx=0;exitDy=0;" edge="1" parent="1" source="zttnPAp60mIIOHk8R7d_-91" target="zttnPAp60mIIOHk8R7d_-93">
          <mxGeometry width="50" height="50" relative="1" as="geometry">
            <mxPoint x="508" y="2685" as="sourcePoint" />
            <mxPoint x="558" y="2635" as="targetPoint" />
          </mxGeometry>
        </mxCell>
        <mxCell id="zttnPAp60mIIOHk8R7d_-118" value="" style="endArrow=classic;html=1;rounded=0;exitX=1;exitY=0;exitDx=0;exitDy=0;entryX=0;entryY=0.5;entryDx=0;entryDy=0;" edge="1" parent="1" source="zttnPAp60mIIOHk8R7d_-90" target="zttnPAp60mIIOHk8R7d_-97">
          <mxGeometry width="50" height="50" relative="1" as="geometry">
            <mxPoint x="715" y="2281" as="sourcePoint" />
            <mxPoint x="765" y="2231" as="targetPoint" />
          </mxGeometry>
        </mxCell>
        <mxCell id="zttnPAp60mIIOHk8R7d_-119" value="" style="endArrow=classic;html=1;rounded=0;exitX=0.5;exitY=0;exitDx=0;exitDy=0;entryX=0.5;entryY=1;entryDx=0;entryDy=0;" edge="1" parent="1" source="zttnPAp60mIIOHk8R7d_-99" target="zttnPAp60mIIOHk8R7d_-97">
          <mxGeometry width="50" height="50" relative="1" as="geometry">
            <mxPoint x="803" y="2712" as="sourcePoint" />
            <mxPoint x="790" y="2550" as="targetPoint" />
          </mxGeometry>
        </mxCell>
        <mxCell id="zttnPAp60mIIOHk8R7d_-120" value="" style="endArrow=classic;html=1;rounded=0;exitX=1;exitY=0.5;exitDx=0;exitDy=0;entryX=0;entryY=0.5;entryDx=0;entryDy=0;" edge="1" parent="1" source="zttnPAp60mIIOHk8R7d_-93" target="zttnPAp60mIIOHk8R7d_-98">
          <mxGeometry width="50" height="50" relative="1" as="geometry">
            <mxPoint x="798" y="2725" as="sourcePoint" />
            <mxPoint x="785" y="2563" as="targetPoint" />
          </mxGeometry>
        </mxCell>
        <mxCell id="zttnPAp60mIIOHk8R7d_-121" value="" style="endArrow=classic;html=1;rounded=0;entryX=0.5;entryY=1;entryDx=0;entryDy=0;" edge="1" parent="1" source="zttnPAp60mIIOHk8R7d_-102" target="zttnPAp60mIIOHk8R7d_-98">
          <mxGeometry width="50" height="50" relative="1" as="geometry">
            <mxPoint x="814" y="2797" as="sourcePoint" />
            <mxPoint x="801" y="2635" as="targetPoint" />
          </mxGeometry>
        </mxCell>
        <mxCell id="zttnPAp60mIIOHk8R7d_-122" value="" style="endArrow=classic;html=1;rounded=0;exitX=0;exitY=0;exitDx=0;exitDy=0;entryX=1;entryY=0.5;entryDx=0;entryDy=0;" edge="1" parent="1" source="zttnPAp60mIIOHk8R7d_-108" target="zttnPAp60mIIOHk8R7d_-102">
          <mxGeometry width="50" height="50" relative="1" as="geometry">
            <mxPoint x="1025" y="2982" as="sourcePoint" />
            <mxPoint x="1012" y="2820" as="targetPoint" />
          </mxGeometry>
        </mxCell>
        <mxCell id="zttnPAp60mIIOHk8R7d_-124" value="" style="endArrow=classic;html=1;rounded=0;exitX=1;exitY=0.5;exitDx=0;exitDy=0;entryX=0.005;entryY=0.429;entryDx=0;entryDy=0;entryPerimeter=0;" edge="1" parent="1" source="zttnPAp60mIIOHk8R7d_-97" target="zttnPAp60mIIOHk8R7d_-104">
          <mxGeometry width="50" height="50" relative="1" as="geometry">
            <mxPoint x="1044" y="2655" as="sourcePoint" />
            <mxPoint x="1031" y="2493" as="targetPoint" />
          </mxGeometry>
        </mxCell>
        <mxCell id="zttnPAp60mIIOHk8R7d_-162" value="" style="whiteSpace=wrap;html=1;aspect=fixed;" vertex="1" parent="1">
          <mxGeometry x="654" y="3469" width="114" height="114" as="geometry" />
        </mxCell>
        <mxCell id="zttnPAp60mIIOHk8R7d_-163" value="" style="ellipse;whiteSpace=wrap;html=1;aspect=fixed;" vertex="1" parent="1">
          <mxGeometry x="678" y="3517" width="18" height="18" as="geometry" />
        </mxCell>
        <mxCell id="zttnPAp60mIIOHk8R7d_-164" value="" style="ellipse;whiteSpace=wrap;html=1;aspect=fixed;" vertex="1" parent="1">
          <mxGeometry x="718" y="3544" width="18" height="18" as="geometry" />
        </mxCell>
        <mxCell id="zttnPAp60mIIOHk8R7d_-165" value="&lt;font style=&quot;font-size: 24px;&quot;&gt;R1&lt;/font&gt;" style="text;html=1;align=center;verticalAlign=middle;whiteSpace=wrap;rounded=0;" vertex="1" parent="1">
          <mxGeometry x="654" y="3471" width="60" height="30" as="geometry" />
        </mxCell>
        <mxCell id="zttnPAp60mIIOHk8R7d_-166" value="&lt;font style=&quot;font-size: 24px;&quot;&gt;P1&lt;/font&gt;" style="ellipse;whiteSpace=wrap;html=1;aspect=fixed;" vertex="1" parent="1">
          <mxGeometry x="684" y="3667" width="80" height="80" as="geometry" />
        </mxCell>
        <mxCell id="zttnPAp60mIIOHk8R7d_-167" value="" style="whiteSpace=wrap;html=1;aspect=fixed;" vertex="1" parent="1">
          <mxGeometry x="669" y="3835" width="114" height="114" as="geometry" />
        </mxCell>
        <mxCell id="zttnPAp60mIIOHk8R7d_-168" value="" style="ellipse;whiteSpace=wrap;html=1;aspect=fixed;" vertex="1" parent="1">
          <mxGeometry x="726" y="3892" width="18" height="18" as="geometry" />
        </mxCell>
        <mxCell id="zttnPAp60mIIOHk8R7d_-169" value="&lt;font style=&quot;font-size: 24px;&quot;&gt;R5&lt;/font&gt;" style="text;html=1;align=center;verticalAlign=middle;whiteSpace=wrap;rounded=0;" vertex="1" parent="1">
          <mxGeometry x="669" y="3837" width="60" height="30" as="geometry" />
        </mxCell>
        <mxCell id="zttnPAp60mIIOHk8R7d_-170" value="&lt;font style=&quot;font-size: 24px;&quot;&gt;P2&lt;/font&gt;" style="ellipse;whiteSpace=wrap;html=1;aspect=fixed;" vertex="1" parent="1">
          <mxGeometry x="912" y="3471" width="80" height="80" as="geometry" />
        </mxCell>
        <mxCell id="zttnPAp60mIIOHk8R7d_-171" value="" style="whiteSpace=wrap;html=1;aspect=fixed;" vertex="1" parent="1">
          <mxGeometry x="905" y="3654" width="114" height="114" as="geometry" />
        </mxCell>
        <mxCell id="zttnPAp60mIIOHk8R7d_-172" value="" style="ellipse;whiteSpace=wrap;html=1;aspect=fixed;" vertex="1" parent="1">
          <mxGeometry x="943" y="3698" width="18" height="18" as="geometry" />
        </mxCell>
        <mxCell id="zttnPAp60mIIOHk8R7d_-173" value="" style="ellipse;whiteSpace=wrap;html=1;aspect=fixed;" vertex="1" parent="1">
          <mxGeometry x="984" y="3711" width="18" height="18" as="geometry" />
        </mxCell>
        <mxCell id="zttnPAp60mIIOHk8R7d_-174" value="&lt;font style=&quot;font-size: 24px;&quot;&gt;R4&lt;/font&gt;" style="text;html=1;align=center;verticalAlign=middle;whiteSpace=wrap;rounded=0;" vertex="1" parent="1">
          <mxGeometry x="905" y="3656" width="60" height="30" as="geometry" />
        </mxCell>
        <mxCell id="zttnPAp60mIIOHk8R7d_-175" value="&lt;font style=&quot;font-size: 24px;&quot;&gt;P3&lt;/font&gt;" style="ellipse;whiteSpace=wrap;html=1;aspect=fixed;" vertex="1" parent="1">
          <mxGeometry x="922" y="3856" width="80" height="80" as="geometry" />
        </mxCell>
        <mxCell id="zttnPAp60mIIOHk8R7d_-176" value="&lt;font style=&quot;font-size: 24px;&quot;&gt;P4&lt;/font&gt;" style="ellipse;whiteSpace=wrap;html=1;aspect=fixed;" vertex="1" parent="1">
          <mxGeometry x="1189" y="3675" width="80" height="80" as="geometry" />
        </mxCell>
        <mxCell id="zttnPAp60mIIOHk8R7d_-177" value="" style="whiteSpace=wrap;html=1;aspect=fixed;" vertex="1" parent="1">
          <mxGeometry x="1169" y="3458" width="114" height="114" as="geometry" />
        </mxCell>
        <mxCell id="zttnPAp60mIIOHk8R7d_-178" value="" style="ellipse;whiteSpace=wrap;html=1;aspect=fixed;" vertex="1" parent="1">
          <mxGeometry x="1215" y="3517" width="18" height="18" as="geometry" />
        </mxCell>
        <mxCell id="zttnPAp60mIIOHk8R7d_-179" value="&lt;font style=&quot;font-size: 24px;&quot;&gt;R2&lt;/font&gt;" style="text;html=1;align=center;verticalAlign=middle;whiteSpace=wrap;rounded=0;" vertex="1" parent="1">
          <mxGeometry x="1169" y="3460" width="60" height="30" as="geometry" />
        </mxCell>
        <mxCell id="zttnPAp60mIIOHk8R7d_-180" value="" style="whiteSpace=wrap;html=1;aspect=fixed;" vertex="1" parent="1">
          <mxGeometry x="1172" y="3852" width="114" height="114" as="geometry" />
        </mxCell>
        <mxCell id="zttnPAp60mIIOHk8R7d_-181" value="" style="ellipse;whiteSpace=wrap;html=1;aspect=fixed;" vertex="1" parent="1">
          <mxGeometry x="1210" y="3896" width="18" height="18" as="geometry" />
        </mxCell>
        <mxCell id="zttnPAp60mIIOHk8R7d_-182" value="" style="ellipse;whiteSpace=wrap;html=1;aspect=fixed;" vertex="1" parent="1">
          <mxGeometry x="1249" y="3931" width="18" height="18" as="geometry" />
        </mxCell>
        <mxCell id="zttnPAp60mIIOHk8R7d_-183" value="&lt;font style=&quot;font-size: 24px;&quot;&gt;R6&lt;/font&gt;" style="text;html=1;align=center;verticalAlign=middle;whiteSpace=wrap;rounded=0;" vertex="1" parent="1">
          <mxGeometry x="1172" y="3854" width="60" height="30" as="geometry" />
        </mxCell>
        <mxCell id="zttnPAp60mIIOHk8R7d_-184" value="&lt;font style=&quot;font-size: 24px;&quot;&gt;P5&lt;/font&gt;" style="ellipse;whiteSpace=wrap;html=1;aspect=fixed;" vertex="1" parent="1">
          <mxGeometry x="1422" y="3671" width="80" height="80" as="geometry" />
        </mxCell>
        <mxCell id="zttnPAp60mIIOHk8R7d_-185" value="" style="whiteSpace=wrap;html=1;aspect=fixed;" vertex="1" parent="1">
          <mxGeometry x="1433" y="3460" width="114" height="114" as="geometry" />
        </mxCell>
        <mxCell id="zttnPAp60mIIOHk8R7d_-186" value="" style="ellipse;whiteSpace=wrap;html=1;aspect=fixed;" vertex="1" parent="1">
          <mxGeometry x="1471" y="3504" width="18" height="18" as="geometry" />
        </mxCell>
        <mxCell id="zttnPAp60mIIOHk8R7d_-187" value="" style="ellipse;whiteSpace=wrap;html=1;aspect=fixed;" vertex="1" parent="1">
          <mxGeometry x="1510" y="3539" width="18" height="18" as="geometry" />
        </mxCell>
        <mxCell id="zttnPAp60mIIOHk8R7d_-188" value="&lt;font style=&quot;font-size: 24px;&quot;&gt;R3&lt;/font&gt;" style="text;html=1;align=center;verticalAlign=middle;whiteSpace=wrap;rounded=0;" vertex="1" parent="1">
          <mxGeometry x="1433" y="3462" width="60" height="30" as="geometry" />
        </mxCell>
        <mxCell id="zttnPAp60mIIOHk8R7d_-189" value="" style="endArrow=classic;html=1;rounded=0;exitX=0.5;exitY=0;exitDx=0;exitDy=0;entryX=0.632;entryY=0.962;entryDx=0;entryDy=0;entryPerimeter=0;" edge="1" parent="1" source="zttnPAp60mIIOHk8R7d_-168" target="zttnPAp60mIIOHk8R7d_-166">
          <mxGeometry width="50" height="50" relative="1" as="geometry">
            <mxPoint x="875" y="4033" as="sourcePoint" />
            <mxPoint x="925" y="3983" as="targetPoint" />
          </mxGeometry>
        </mxCell>
        <mxCell id="zttnPAp60mIIOHk8R7d_-190" value="" style="endArrow=classic;html=1;rounded=0;entryX=0.5;entryY=0;entryDx=0;entryDy=0;exitX=0.5;exitY=1;exitDx=0;exitDy=0;" edge="1" parent="1" source="zttnPAp60mIIOHk8R7d_-164" target="zttnPAp60mIIOHk8R7d_-166">
          <mxGeometry width="50" height="50" relative="1" as="geometry">
            <mxPoint x="572" y="3827" as="sourcePoint" />
            <mxPoint x="622" y="3777" as="targetPoint" />
          </mxGeometry>
        </mxCell>
        <mxCell id="zttnPAp60mIIOHk8R7d_-191" value="" style="endArrow=classic;html=1;rounded=0;exitX=1;exitY=0;exitDx=0;exitDy=0;entryX=0;entryY=0.5;entryDx=0;entryDy=0;" edge="1" parent="1" source="zttnPAp60mIIOHk8R7d_-163" target="zttnPAp60mIIOHk8R7d_-170">
          <mxGeometry width="50" height="50" relative="1" as="geometry">
            <mxPoint x="779" y="3423" as="sourcePoint" />
            <mxPoint x="829" y="3373" as="targetPoint" />
          </mxGeometry>
        </mxCell>
        <mxCell id="zttnPAp60mIIOHk8R7d_-192" value="" style="endArrow=classic;html=1;rounded=0;exitX=0.5;exitY=0;exitDx=0;exitDy=0;entryX=0.5;entryY=1;entryDx=0;entryDy=0;" edge="1" parent="1" source="zttnPAp60mIIOHk8R7d_-172" target="zttnPAp60mIIOHk8R7d_-170">
          <mxGeometry width="50" height="50" relative="1" as="geometry">
            <mxPoint x="867" y="3854" as="sourcePoint" />
            <mxPoint x="854" y="3692" as="targetPoint" />
          </mxGeometry>
        </mxCell>
        <mxCell id="zttnPAp60mIIOHk8R7d_-193" value="" style="endArrow=classic;html=1;rounded=0;exitX=1;exitY=0.5;exitDx=0;exitDy=0;entryX=0;entryY=0.5;entryDx=0;entryDy=0;" edge="1" parent="1" source="zttnPAp60mIIOHk8R7d_-166" target="zttnPAp60mIIOHk8R7d_-171">
          <mxGeometry width="50" height="50" relative="1" as="geometry">
            <mxPoint x="862" y="3867" as="sourcePoint" />
            <mxPoint x="849" y="3705" as="targetPoint" />
          </mxGeometry>
        </mxCell>
        <mxCell id="zttnPAp60mIIOHk8R7d_-196" value="" style="endArrow=classic;html=1;rounded=0;exitX=1;exitY=0.5;exitDx=0;exitDy=0;entryX=0.005;entryY=0.429;entryDx=0;entryDy=0;entryPerimeter=0;" edge="1" parent="1" source="zttnPAp60mIIOHk8R7d_-170" target="zttnPAp60mIIOHk8R7d_-177">
          <mxGeometry width="50" height="50" relative="1" as="geometry">
            <mxPoint x="1108" y="3797" as="sourcePoint" />
            <mxPoint x="1095" y="3635" as="targetPoint" />
          </mxGeometry>
        </mxCell>
        <mxCell id="zttnPAp60mIIOHk8R7d_-197" value="" style="whiteSpace=wrap;html=1;aspect=fixed;" vertex="1" parent="1">
          <mxGeometry x="696" y="4506" width="114" height="114" as="geometry" />
        </mxCell>
        <mxCell id="zttnPAp60mIIOHk8R7d_-198" value="" style="ellipse;whiteSpace=wrap;html=1;aspect=fixed;" vertex="1" parent="1">
          <mxGeometry x="720" y="4554" width="18" height="18" as="geometry" />
        </mxCell>
        <mxCell id="zttnPAp60mIIOHk8R7d_-199" value="" style="ellipse;whiteSpace=wrap;html=1;aspect=fixed;" vertex="1" parent="1">
          <mxGeometry x="760" y="4581" width="18" height="18" as="geometry" />
        </mxCell>
        <mxCell id="zttnPAp60mIIOHk8R7d_-200" value="&lt;font style=&quot;font-size: 24px;&quot;&gt;R1&lt;/font&gt;" style="text;html=1;align=center;verticalAlign=middle;whiteSpace=wrap;rounded=0;" vertex="1" parent="1">
          <mxGeometry x="696" y="4508" width="60" height="30" as="geometry" />
        </mxCell>
        <mxCell id="zttnPAp60mIIOHk8R7d_-201" value="&lt;font style=&quot;font-size: 24px;&quot;&gt;P1&lt;/font&gt;" style="ellipse;whiteSpace=wrap;html=1;aspect=fixed;" vertex="1" parent="1">
          <mxGeometry x="726" y="4704" width="80" height="80" as="geometry" />
        </mxCell>
        <mxCell id="zttnPAp60mIIOHk8R7d_-202" value="" style="whiteSpace=wrap;html=1;aspect=fixed;" vertex="1" parent="1">
          <mxGeometry x="711" y="4872" width="114" height="114" as="geometry" />
        </mxCell>
        <mxCell id="zttnPAp60mIIOHk8R7d_-203" value="" style="ellipse;whiteSpace=wrap;html=1;aspect=fixed;" vertex="1" parent="1">
          <mxGeometry x="768" y="4929" width="18" height="18" as="geometry" />
        </mxCell>
        <mxCell id="zttnPAp60mIIOHk8R7d_-204" value="&lt;font style=&quot;font-size: 24px;&quot;&gt;R5&lt;/font&gt;" style="text;html=1;align=center;verticalAlign=middle;whiteSpace=wrap;rounded=0;" vertex="1" parent="1">
          <mxGeometry x="711" y="4874" width="60" height="30" as="geometry" />
        </mxCell>
        <mxCell id="zttnPAp60mIIOHk8R7d_-205" value="&lt;font style=&quot;font-size: 24px;&quot;&gt;P2&lt;/font&gt;" style="ellipse;whiteSpace=wrap;html=1;aspect=fixed;" vertex="1" parent="1">
          <mxGeometry x="954" y="4508" width="80" height="80" as="geometry" />
        </mxCell>
        <mxCell id="zttnPAp60mIIOHk8R7d_-206" value="" style="whiteSpace=wrap;html=1;aspect=fixed;" vertex="1" parent="1">
          <mxGeometry x="947" y="4691" width="114" height="114" as="geometry" />
        </mxCell>
        <mxCell id="zttnPAp60mIIOHk8R7d_-207" value="" style="ellipse;whiteSpace=wrap;html=1;aspect=fixed;" vertex="1" parent="1">
          <mxGeometry x="985" y="4735" width="18" height="18" as="geometry" />
        </mxCell>
        <mxCell id="zttnPAp60mIIOHk8R7d_-208" value="" style="ellipse;whiteSpace=wrap;html=1;aspect=fixed;" vertex="1" parent="1">
          <mxGeometry x="1026" y="4748" width="18" height="18" as="geometry" />
        </mxCell>
        <mxCell id="zttnPAp60mIIOHk8R7d_-209" value="&lt;font style=&quot;font-size: 24px;&quot;&gt;R4&lt;/font&gt;" style="text;html=1;align=center;verticalAlign=middle;whiteSpace=wrap;rounded=0;" vertex="1" parent="1">
          <mxGeometry x="947" y="4693" width="60" height="30" as="geometry" />
        </mxCell>
        <mxCell id="zttnPAp60mIIOHk8R7d_-210" value="&lt;font style=&quot;font-size: 24px;&quot;&gt;P3&lt;/font&gt;" style="ellipse;whiteSpace=wrap;html=1;aspect=fixed;" vertex="1" parent="1">
          <mxGeometry x="964" y="4893" width="80" height="80" as="geometry" />
        </mxCell>
        <mxCell id="zttnPAp60mIIOHk8R7d_-211" value="&lt;font style=&quot;font-size: 24px;&quot;&gt;P4&lt;/font&gt;" style="ellipse;whiteSpace=wrap;html=1;aspect=fixed;" vertex="1" parent="1">
          <mxGeometry x="1231" y="4712" width="80" height="80" as="geometry" />
        </mxCell>
        <mxCell id="zttnPAp60mIIOHk8R7d_-212" value="" style="whiteSpace=wrap;html=1;aspect=fixed;" vertex="1" parent="1">
          <mxGeometry x="1211" y="4495" width="114" height="114" as="geometry" />
        </mxCell>
        <mxCell id="zttnPAp60mIIOHk8R7d_-213" value="" style="ellipse;whiteSpace=wrap;html=1;aspect=fixed;" vertex="1" parent="1">
          <mxGeometry x="1257" y="4554" width="18" height="18" as="geometry" />
        </mxCell>
        <mxCell id="zttnPAp60mIIOHk8R7d_-214" value="&lt;font style=&quot;font-size: 24px;&quot;&gt;R2&lt;/font&gt;" style="text;html=1;align=center;verticalAlign=middle;whiteSpace=wrap;rounded=0;" vertex="1" parent="1">
          <mxGeometry x="1211" y="4497" width="60" height="30" as="geometry" />
        </mxCell>
        <mxCell id="zttnPAp60mIIOHk8R7d_-215" value="" style="whiteSpace=wrap;html=1;aspect=fixed;" vertex="1" parent="1">
          <mxGeometry x="1214" y="4889" width="114" height="114" as="geometry" />
        </mxCell>
        <mxCell id="zttnPAp60mIIOHk8R7d_-216" value="" style="ellipse;whiteSpace=wrap;html=1;aspect=fixed;" vertex="1" parent="1">
          <mxGeometry x="1252" y="4933" width="18" height="18" as="geometry" />
        </mxCell>
        <mxCell id="zttnPAp60mIIOHk8R7d_-217" value="" style="ellipse;whiteSpace=wrap;html=1;aspect=fixed;" vertex="1" parent="1">
          <mxGeometry x="1291" y="4968" width="18" height="18" as="geometry" />
        </mxCell>
        <mxCell id="zttnPAp60mIIOHk8R7d_-218" value="&lt;font style=&quot;font-size: 24px;&quot;&gt;R6&lt;/font&gt;" style="text;html=1;align=center;verticalAlign=middle;whiteSpace=wrap;rounded=0;" vertex="1" parent="1">
          <mxGeometry x="1214" y="4891" width="60" height="30" as="geometry" />
        </mxCell>
        <mxCell id="zttnPAp60mIIOHk8R7d_-219" value="&lt;font style=&quot;font-size: 24px;&quot;&gt;P5&lt;/font&gt;" style="ellipse;whiteSpace=wrap;html=1;aspect=fixed;" vertex="1" parent="1">
          <mxGeometry x="1464" y="4708" width="80" height="80" as="geometry" />
        </mxCell>
        <mxCell id="zttnPAp60mIIOHk8R7d_-220" value="" style="whiteSpace=wrap;html=1;aspect=fixed;" vertex="1" parent="1">
          <mxGeometry x="1475" y="4497" width="114" height="114" as="geometry" />
        </mxCell>
        <mxCell id="zttnPAp60mIIOHk8R7d_-221" value="" style="ellipse;whiteSpace=wrap;html=1;aspect=fixed;" vertex="1" parent="1">
          <mxGeometry x="1513" y="4541" width="18" height="18" as="geometry" />
        </mxCell>
        <mxCell id="zttnPAp60mIIOHk8R7d_-222" value="" style="ellipse;whiteSpace=wrap;html=1;aspect=fixed;" vertex="1" parent="1">
          <mxGeometry x="1552" y="4576" width="18" height="18" as="geometry" />
        </mxCell>
        <mxCell id="zttnPAp60mIIOHk8R7d_-223" value="&lt;font style=&quot;font-size: 24px;&quot;&gt;R3&lt;/font&gt;" style="text;html=1;align=center;verticalAlign=middle;whiteSpace=wrap;rounded=0;" vertex="1" parent="1">
          <mxGeometry x="1475" y="4499" width="60" height="30" as="geometry" />
        </mxCell>
        <mxCell id="zttnPAp60mIIOHk8R7d_-224" value="" style="endArrow=classic;html=1;rounded=0;exitX=0.5;exitY=0;exitDx=0;exitDy=0;entryX=0.632;entryY=0.962;entryDx=0;entryDy=0;entryPerimeter=0;" edge="1" parent="1" source="zttnPAp60mIIOHk8R7d_-203" target="zttnPAp60mIIOHk8R7d_-201">
          <mxGeometry width="50" height="50" relative="1" as="geometry">
            <mxPoint x="917" y="5070" as="sourcePoint" />
            <mxPoint x="967" y="5020" as="targetPoint" />
          </mxGeometry>
        </mxCell>
        <mxCell id="zttnPAp60mIIOHk8R7d_-225" value="" style="endArrow=classic;html=1;rounded=0;entryX=0.5;entryY=0;entryDx=0;entryDy=0;exitX=0.5;exitY=1;exitDx=0;exitDy=0;" edge="1" parent="1" source="zttnPAp60mIIOHk8R7d_-199" target="zttnPAp60mIIOHk8R7d_-201">
          <mxGeometry width="50" height="50" relative="1" as="geometry">
            <mxPoint x="614" y="4864" as="sourcePoint" />
            <mxPoint x="664" y="4814" as="targetPoint" />
          </mxGeometry>
        </mxCell>
        <mxCell id="zttnPAp60mIIOHk8R7d_-228" value="" style="endArrow=classic;html=1;rounded=0;exitX=1;exitY=0.5;exitDx=0;exitDy=0;entryX=0;entryY=0.5;entryDx=0;entryDy=0;" edge="1" parent="1" source="zttnPAp60mIIOHk8R7d_-201" target="zttnPAp60mIIOHk8R7d_-206">
          <mxGeometry width="50" height="50" relative="1" as="geometry">
            <mxPoint x="904" y="4904" as="sourcePoint" />
            <mxPoint x="891" y="4742" as="targetPoint" />
          </mxGeometry>
        </mxCell>
        <mxCell id="zttnPAp60mIIOHk8R7d_-230" value="" style="whiteSpace=wrap;html=1;aspect=fixed;" vertex="1" parent="1">
          <mxGeometry x="726" y="5557" width="114" height="114" as="geometry" />
        </mxCell>
        <mxCell id="zttnPAp60mIIOHk8R7d_-231" value="" style="ellipse;whiteSpace=wrap;html=1;aspect=fixed;" vertex="1" parent="1">
          <mxGeometry x="750" y="5605" width="18" height="18" as="geometry" />
        </mxCell>
        <mxCell id="zttnPAp60mIIOHk8R7d_-232" value="" style="ellipse;whiteSpace=wrap;html=1;aspect=fixed;" vertex="1" parent="1">
          <mxGeometry x="790" y="5632" width="18" height="18" as="geometry" />
        </mxCell>
        <mxCell id="zttnPAp60mIIOHk8R7d_-233" value="&lt;font style=&quot;font-size: 24px;&quot;&gt;R1&lt;/font&gt;" style="text;html=1;align=center;verticalAlign=middle;whiteSpace=wrap;rounded=0;" vertex="1" parent="1">
          <mxGeometry x="726" y="5559" width="60" height="30" as="geometry" />
        </mxCell>
        <mxCell id="zttnPAp60mIIOHk8R7d_-234" value="&lt;font style=&quot;font-size: 24px;&quot;&gt;P1&lt;/font&gt;" style="ellipse;whiteSpace=wrap;html=1;aspect=fixed;" vertex="1" parent="1">
          <mxGeometry x="756" y="5755" width="80" height="80" as="geometry" />
        </mxCell>
        <mxCell id="zttnPAp60mIIOHk8R7d_-235" value="" style="whiteSpace=wrap;html=1;aspect=fixed;" vertex="1" parent="1">
          <mxGeometry x="741" y="5923" width="114" height="114" as="geometry" />
        </mxCell>
        <mxCell id="zttnPAp60mIIOHk8R7d_-236" value="" style="ellipse;whiteSpace=wrap;html=1;aspect=fixed;" vertex="1" parent="1">
          <mxGeometry x="798" y="5980" width="18" height="18" as="geometry" />
        </mxCell>
        <mxCell id="zttnPAp60mIIOHk8R7d_-237" value="&lt;font style=&quot;font-size: 24px;&quot;&gt;R5&lt;/font&gt;" style="text;html=1;align=center;verticalAlign=middle;whiteSpace=wrap;rounded=0;" vertex="1" parent="1">
          <mxGeometry x="741" y="5925" width="60" height="30" as="geometry" />
        </mxCell>
        <mxCell id="zttnPAp60mIIOHk8R7d_-238" value="&lt;font style=&quot;font-size: 24px;&quot;&gt;P2&lt;/font&gt;" style="ellipse;whiteSpace=wrap;html=1;aspect=fixed;" vertex="1" parent="1">
          <mxGeometry x="984" y="5559" width="80" height="80" as="geometry" />
        </mxCell>
        <mxCell id="zttnPAp60mIIOHk8R7d_-239" value="" style="whiteSpace=wrap;html=1;aspect=fixed;" vertex="1" parent="1">
          <mxGeometry x="977" y="5742" width="114" height="114" as="geometry" />
        </mxCell>
        <mxCell id="zttnPAp60mIIOHk8R7d_-240" value="" style="ellipse;whiteSpace=wrap;html=1;aspect=fixed;" vertex="1" parent="1">
          <mxGeometry x="1015" y="5786" width="18" height="18" as="geometry" />
        </mxCell>
        <mxCell id="zttnPAp60mIIOHk8R7d_-241" value="" style="ellipse;whiteSpace=wrap;html=1;aspect=fixed;" vertex="1" parent="1">
          <mxGeometry x="1056" y="5799" width="18" height="18" as="geometry" />
        </mxCell>
        <mxCell id="zttnPAp60mIIOHk8R7d_-242" value="&lt;font style=&quot;font-size: 24px;&quot;&gt;R4&lt;/font&gt;" style="text;html=1;align=center;verticalAlign=middle;whiteSpace=wrap;rounded=0;" vertex="1" parent="1">
          <mxGeometry x="977" y="5744" width="60" height="30" as="geometry" />
        </mxCell>
        <mxCell id="zttnPAp60mIIOHk8R7d_-243" value="&lt;font style=&quot;font-size: 24px;&quot;&gt;P3&lt;/font&gt;" style="ellipse;whiteSpace=wrap;html=1;aspect=fixed;" vertex="1" parent="1">
          <mxGeometry x="994" y="5944" width="80" height="80" as="geometry" />
        </mxCell>
        <mxCell id="zttnPAp60mIIOHk8R7d_-244" value="&lt;font style=&quot;font-size: 24px;&quot;&gt;P4&lt;/font&gt;" style="ellipse;whiteSpace=wrap;html=1;aspect=fixed;" vertex="1" parent="1">
          <mxGeometry x="1261" y="5763" width="80" height="80" as="geometry" />
        </mxCell>
        <mxCell id="zttnPAp60mIIOHk8R7d_-245" value="" style="whiteSpace=wrap;html=1;aspect=fixed;" vertex="1" parent="1">
          <mxGeometry x="1241" y="5546" width="114" height="114" as="geometry" />
        </mxCell>
        <mxCell id="zttnPAp60mIIOHk8R7d_-246" value="" style="ellipse;whiteSpace=wrap;html=1;aspect=fixed;" vertex="1" parent="1">
          <mxGeometry x="1287" y="5605" width="18" height="18" as="geometry" />
        </mxCell>
        <mxCell id="zttnPAp60mIIOHk8R7d_-247" value="&lt;font style=&quot;font-size: 24px;&quot;&gt;R2&lt;/font&gt;" style="text;html=1;align=center;verticalAlign=middle;whiteSpace=wrap;rounded=0;" vertex="1" parent="1">
          <mxGeometry x="1241" y="5548" width="60" height="30" as="geometry" />
        </mxCell>
        <mxCell id="zttnPAp60mIIOHk8R7d_-248" value="" style="whiteSpace=wrap;html=1;aspect=fixed;" vertex="1" parent="1">
          <mxGeometry x="1244" y="5940" width="114" height="114" as="geometry" />
        </mxCell>
        <mxCell id="zttnPAp60mIIOHk8R7d_-249" value="" style="ellipse;whiteSpace=wrap;html=1;aspect=fixed;" vertex="1" parent="1">
          <mxGeometry x="1282" y="5984" width="18" height="18" as="geometry" />
        </mxCell>
        <mxCell id="zttnPAp60mIIOHk8R7d_-250" value="" style="ellipse;whiteSpace=wrap;html=1;aspect=fixed;" vertex="1" parent="1">
          <mxGeometry x="1321" y="6019" width="18" height="18" as="geometry" />
        </mxCell>
        <mxCell id="zttnPAp60mIIOHk8R7d_-251" value="&lt;font style=&quot;font-size: 24px;&quot;&gt;R6&lt;/font&gt;" style="text;html=1;align=center;verticalAlign=middle;whiteSpace=wrap;rounded=0;" vertex="1" parent="1">
          <mxGeometry x="1244" y="5942" width="60" height="30" as="geometry" />
        </mxCell>
        <mxCell id="zttnPAp60mIIOHk8R7d_-252" value="&lt;font style=&quot;font-size: 24px;&quot;&gt;P5&lt;/font&gt;" style="ellipse;whiteSpace=wrap;html=1;aspect=fixed;" vertex="1" parent="1">
          <mxGeometry x="1494" y="5759" width="80" height="80" as="geometry" />
        </mxCell>
        <mxCell id="zttnPAp60mIIOHk8R7d_-253" value="" style="whiteSpace=wrap;html=1;aspect=fixed;" vertex="1" parent="1">
          <mxGeometry x="1505" y="5548" width="114" height="114" as="geometry" />
        </mxCell>
        <mxCell id="zttnPAp60mIIOHk8R7d_-254" value="" style="ellipse;whiteSpace=wrap;html=1;aspect=fixed;" vertex="1" parent="1">
          <mxGeometry x="1543" y="5592" width="18" height="18" as="geometry" />
        </mxCell>
        <mxCell id="zttnPAp60mIIOHk8R7d_-255" value="" style="ellipse;whiteSpace=wrap;html=1;aspect=fixed;" vertex="1" parent="1">
          <mxGeometry x="1582" y="5627" width="18" height="18" as="geometry" />
        </mxCell>
        <mxCell id="zttnPAp60mIIOHk8R7d_-256" value="&lt;font style=&quot;font-size: 24px;&quot;&gt;R3&lt;/font&gt;" style="text;html=1;align=center;verticalAlign=middle;whiteSpace=wrap;rounded=0;" vertex="1" parent="1">
          <mxGeometry x="1505" y="5550" width="60" height="30" as="geometry" />
        </mxCell>
      </root>
    </mxGraphModel>
  </diagram>
</mxfile>
